<svg width="2078" height="575" viewBox="0 0 2078 575" xmlns="http://www.w3.org/2000/svg"><title>city</title><path d="M2078 451.225c-21.702-6.217-45.073-12.226-69.997-18.005v-68.806h-54.745V-.072h-48.982v364.486h-24.491V257.805h-106.609V47.47h-151.268v177.2h-116.693v139.595c-6.694-.495-13.417-.98-20.17-1.454V172.807h-158.471v181.07c-18.568-.8-37.3-1.523-56.186-2.168v-65.09h-38.898V22.978h-50.423v263.64H1077.34v30.66-75.32H950.563v-69.152H787.769V47.47H542.858v319.466a5043.495 5043.495 0 0 0-47.542 4.055V253.483h-109.49v128.68c-22.1 2.535-43.72 5.193-64.829 7.97V172.807h-89.32v113.811H174.05v102.287H37.188v53.475c-12.897 3.33-25.3 6.727-37.188 10.188V575.12h2078V451.225z" fill="#000" fill-rule="evenodd" fill-opacity=".15"/></svg>
