<?xml version="1.0" encoding="UTF-8"?>
<svg width="200px" height="200px" viewBox="0 0 200 200" version="1.1" xmlns="http://www.w3.org/2000/svg" xmlns:xlink="http://www.w3.org/1999/xlink">
    <!-- Generator: Sketch 43.2 (39069) - http://www.bohemiancoding.com/sketch -->
    <title>dad</title>
    <desc>Created with Sketch.</desc>
    <defs></defs>
    <g id="Page-1" stroke="none" stroke-width="1" fill="none" fill-rule="evenodd">
        <g id="dad" fill="#FFFFFF">
            <path d="M31.9089837,173.237257 C49.7618799,189.84316 73.6948114,200 100,200 C126.305324,200 150.238367,189.843055 168.091292,173.237 C165.391381,170.235595 161.801032,167.431163 157.027161,165.246574 C137.118059,156.13598 122.270628,150.399143 119.908584,144.324723 L119.638311,126.090074 C119.638311,126.090074 127.576685,120.557236 128.429962,108.945837 C136.086671,103.258706 136.757695,89.7843878 136.757695,87.9204336 C136.757695,86.0544084 134.593437,84.9350003 133.921378,86.5027929 C133.675957,87.07337 133.22343,87.2255929 132.746051,87.1924559 C132.72534,87.159319 132.707736,87.1272176 132.68599,87.0940806 C132.68599,87.0940806 146.903819,45.5734651 117.884123,37.3565337 C117.884123,37.3565337 110.460407,26.896644 87.8516785,31.2831496 C65.2429495,35.6696551 64.5677838,56.2539227 64.5677838,56.2539227 C64.5677838,56.2539227 63.4359494,73.7398842 66.3602865,84.5394278 C66.5280424,85.1586748 66.7113312,85.7478914 66.9018687,86.3236462 C66.5290779,86.2863671 66.1935661,86.0999717 65.9957799,85.6391608 C65.3237208,84.0703327 63.1594629,85.1907762 63.1594629,87.0568015 C63.1594629,88.9228268 63.8315219,102.433388 71.5192975,108.107058 L71.5224041,108.10188 C72.0401692,120.290069 80.3616891,126.090074 80.3616891,126.090074 L80.0914158,144.324723 C77.7293716,150.399143 62.8819408,156.13598 42.9728388,165.246574 C38.1990375,167.431307 34.6087946,170.235821 31.9089811,173.23726 Z" id="Combined-Shape"></path>
        </g>
    </g>
</svg>