<?xml version="1.0" encoding="UTF-8"?>
<svg width="200px" height="200px" viewBox="0 0 200 200" version="1.1" xmlns="http://www.w3.org/2000/svg" xmlns:xlink="http://www.w3.org/1999/xlink">
    <!-- Generator: Sketch 43.2 (39069) - http://www.bohemiancoding.com/sketch -->
    <title>mom</title>
    <desc>Created with Sketch.</desc>
    <defs></defs>
    <g id="Page-1" stroke="none" stroke-width="1" fill="none" fill-rule="evenodd">
        <g id="mom" fill="#FFFFFF">
            <path d="M33.3269104,174.531134 C51.0195617,190.369217 74.3850859,200 100,200 C125.615012,200 148.980618,190.369143 166.673293,174.530952 C163.998232,171.407914 160.366823,168.471927 155.437148,166.215643 C136.083139,157.359076 121.649675,151.78218 119.35349,145.878148 L119.107359,129.316741 C128.461381,126.341358 138.525757,120.816388 149.08551,111.653455 C149.08551,111.653455 139.625558,91.6337496 139.40539,68.9741056 C139.375273,65.8876002 138.947399,63.0524185 138.228738,60.4529827 C134.527424,43.1697985 119.167593,30.2100067 100.778377,30.2100067 C82.9613892,30.2100067 67.9858143,42.3763631 63.7050016,58.854688 C62.7807116,61.7625666 62.2219835,64.9840807 62.1866736,68.5348082 C61.9675442,91.1944523 52.5075919,111.214158 52.5075919,111.214158 C59.9808399,117.698727 67.2079568,122.363795 74.1089759,125.590502 C76.2223805,126.650839 78.4905258,127.649903 80.904065,128.535768 L80.6465101,145.878148 C78.3503245,151.78218 63.9168613,157.359076 44.5628522,166.215643 C39.6329559,168.471931 36.0015194,171.407997 33.3269076,174.531138 Z" id="Combined-Shape"></path>
        </g>
    </g>
</svg>