<?xml version="1.0" encoding="UTF-8"?>
<svg width="498px" height="99px" viewBox="0 0 498 99" version="1.1" xmlns="http://www.w3.org/2000/svg" xmlns:xlink="http://www.w3.org/1999/xlink">
    <!-- Generator: Sketch 43.1 (39012) - http://www.bohemiancoding.com/sketch -->
    <title>title</title>
    <desc>Created with Sketch.</desc>
    <defs>
        <linearGradient x1="1.79567921%" y1="33.2901098%" x2="100%" y2="52.4143252%" id="linearGradient-1">
            <stop stop-color="#FFFFFF" offset="0%"></stop>
            <stop stop-color="#A3A3A3" offset="87.5673394%"></stop>
            <stop stop-color="#969696" offset="100%"></stop>
        </linearGradient>
        <linearGradient x1="21.1529341%" y1="37.8795208%" x2="83.9208608%" y2="68.5478643%" id="linearGradient-2">
            <stop stop-color="#BABABA" offset="0%"></stop>
            <stop stop-color="#646464" offset="100%"></stop>
        </linearGradient>
        <radialGradient cx="28.2530367%" cy="31.2000868%" fx="28.2530367%" fy="31.2000868%" r="79.054638%" gradientTransform="translate(0.282530,0.312001),scale(1.000000,1.000000),rotate(35.001039),translate(-0.282530,-0.312001)" id="radialGradient-3">
            <stop stop-color="#FDF9C5" offset="0%"></stop>
            <stop stop-color="#FDF9C5" offset="65.8713144%"></stop>
            <stop stop-color="#5D5A31" offset="100%"></stop>
        </radialGradient>
        <radialGradient cx="28.2530367%" cy="31.2000868%" fx="28.2530367%" fy="31.2000868%" r="79.054638%" gradientTransform="translate(0.282530,0.312001),scale(1.000000,1.000000),rotate(35.001039),translate(-0.282530,-0.312001)" id="radialGradient-4">
            <stop stop-color="#E9E5B0" offset="0%"></stop>
            <stop stop-color="#E9E5B0" offset="60.0167411%"></stop>
            <stop stop-color="#5D5A31" offset="100%"></stop>
        </radialGradient>
        <radialGradient cx="28.2530367%" cy="31.2000868%" fx="28.2530367%" fy="31.2000868%" r="79.054638%" gradientTransform="translate(0.282530,0.312001),scale(1.000000,1.000000),rotate(35.001039),translate(-0.282530,-0.312001)" id="radialGradient-5">
            <stop stop-color="#E9E5B0" offset="0%"></stop>
            <stop stop-color="#E9E5B0" offset="60.0167411%"></stop>
            <stop stop-color="#5D5A31" offset="100%"></stop>
        </radialGradient>
        <radialGradient cx="28.2530367%" cy="31.2000868%" fx="28.2530367%" fy="31.2000868%" r="79.054638%" id="radialGradient-6">
            <stop stop-color="#E9E5B0" offset="0%"></stop>
            <stop stop-color="#E9E5B0" offset="60.0167411%"></stop>
            <stop stop-color="#5D5A31" offset="100%"></stop>
        </radialGradient>
        <radialGradient cx="28.2530367%" cy="31.2000868%" fx="28.2530367%" fy="31.2000868%" r="79.054638%" gradientTransform="translate(0.282530,0.312001),scale(0.897568,1.000000),rotate(32.149694),translate(-0.282530,-0.312001)" id="radialGradient-7">
            <stop stop-color="#E9E5B0" offset="0%"></stop>
            <stop stop-color="#E9E5B0" offset="60.0167411%"></stop>
            <stop stop-color="#5D5A31" offset="100%"></stop>
        </radialGradient>
        <radialGradient cx="28.2530367%" cy="31.2000868%" fx="28.2530367%" fy="31.2000868%" r="79.054638%" gradientTransform="translate(0.282530,0.312001),scale(1.000000,0.776573),rotate(42.040930),translate(-0.282530,-0.312001)" id="radialGradient-8">
            <stop stop-color="#E9E5B0" offset="0%"></stop>
            <stop stop-color="#E9E5B0" offset="60.0167411%"></stop>
            <stop stop-color="#5D5A31" offset="100%"></stop>
        </radialGradient>
        <radialGradient cx="28.2530367%" cy="31.2000868%" fx="28.2530367%" fy="31.2000868%" r="79.054638%" gradientTransform="translate(0.282530,0.312001),scale(1.000000,0.751124),rotate(42.991836),translate(-0.282530,-0.312001)" id="radialGradient-9">
            <stop stop-color="#E9E5B0" offset="0%"></stop>
            <stop stop-color="#E9E5B0" offset="60.0167411%"></stop>
            <stop stop-color="#5D5A31" offset="100%"></stop>
        </radialGradient>
    </defs>
    <g id="Page-1" stroke="none" stroke-width="1" fill="none" fill-rule="evenodd">
        <g id="title">
            <g id="Group-2" transform="translate(-0.478292, 0.163017)">
                <g id="Group" transform="translate(13.171626, 55.490936)">
                    <path d="M5.0869446,6.10054234 L27.0446184,6.10054234 L27.0446184,26.6514194 C27.0446184,26.6514194 25.8631258,29.5532931 24.1384119,30.852583 C22.413698,32.1518729 10.442521,33.0333211 8.00912821,30.852583 C5.57573539,28.6718449 5.0869446,26.6514194 5.0869446,26.6514194 L5.0869446,6.10054234 Z" id="Rectangle-2" fill="url(#linearGradient-1)"></path>
                    <path d="M32.2398871,0.0128524055 L26.8583728,7.09855716 C26.8583728,7.09855716 24.7680178,8.70860001 16.083248,8.70860001 C7.39847822,8.70860001 5.30524899,7.09855716 5.30524899,7.09855716 L0.0320261608,0.153279 C4.69927995,2.98812043 10.1732653,4.62168438 16.0216125,4.62168438 C21.9657517,4.62168438 27.523165,2.93408522 32.2398871,0.0128524054 Z M25.2000988,29.7771546 C25.2000988,29.7771546 23.2413555,35.154717 21.4564991,36.2382771 C19.326743,37.5259029 12.9690904,37.3821947 10.7085598,36.2382771 C8.81304809,35.2797431 6.96352304,29.7771546 6.96352304,29.7771546 C9.28441112,30.3016897 12.5149724,31.0820254 16.083248,31.0820254 C19.6472124,31.0820254 22.8705882,30.3016897 25.2000988,29.7771546 Z M27.0726171,8.98544635 C28.2596472,9.63788177 28.9480097,10.4153433 28.9480097,11.2416657 C28.9480097,13.6459046 23.1881834,15.5945883 16.0818109,15.5945883 C8.96825299,15.5945883 3.21417504,13.6444675 3.21417504,11.2416657 C3.21417504,10.4153433 3.8953521,9.63788177 5.08381925,8.98544635 C5.82822794,10.5504291 10.4714412,11.7503929 16.0818109,11.7503929 C21.682121,11.7503929 26.3253343,10.548992 27.0726171,8.98544635 Z M27.0726171,15.5945883 C28.2596472,16.2470238 28.9480097,17.0244853 28.9480097,17.8508077 C28.9480097,20.2536095 23.1881834,22.2022932 16.0818109,22.2022932 C8.96825299,22.2022932 3.21417504,20.2536095 3.21417504,17.8508077 C3.21417504,17.0259224 3.8953521,16.2470238 5.08381925,15.5945883 C5.82822794,17.1610082 10.4714412,18.3595349 16.0818109,18.3595349 C21.682121,18.3595349 26.3253343,17.1610082 27.0726171,15.5945883 Z M27.0726171,22.2022932 C28.2582101,22.8547287 28.9480097,23.6336273 28.9480097,24.4570755 C28.9480097,25.6498539 27.5152385,26.7434736 25.2000988,27.5309948 C22.8705882,28.3257014 19.6472124,28.8128723 16.0818109,28.8128723 C12.5135353,28.8128723 9.28297404,28.3242643 6.96208595,27.5309948 C4.6469462,26.7434736 3.21561212,25.6498539 3.21561212,24.4570755 C3.21561212,23.6321902 3.89966335,22.8547287 5.08238217,22.2022932 C5.8311021,23.7687131 10.4700041,24.9672398 16.0818109,24.9672398 C21.6864323,24.9672398 26.3238972,23.7687131 27.0726171,22.2022932 Z" id="Combined-Shape" fill="url(#linearGradient-2)"></path>
                </g>
                <g id="moon" transform="translate(0.138649, 0.028211)">
                    <path d="M29.193238,0 C13.0960866,0 0,13.0954378 0,29.193238 C0,45.2910382 13.0960866,58.3864761 29.193238,58.3864761 C45.2903895,58.3864761 58.3864761,45.2903895 58.3864761,29.193238 C58.3864761,13.0960866 45.2903895,0 29.193238,0 Z" id="Path" fill="url(#radialGradient-3)"></path>
                    <path d="M18.9851077,24.5811119 C16.4419814,24.5811119 14.3729816,26.6500092 14.3729816,29.193238 C14.3729816,31.7364669 16.4419814,33.8053642 18.9851077,33.8053642 C21.5282341,33.8053642 23.5972339,31.7363644 23.5972339,29.193238 C23.5972339,26.6501117 21.5282341,24.5811119 18.9851077,24.5811119 Z" id="Path" fill="url(#radialGradient-4)" style="mix-blend-mode: darken;" transform="translate(18.985108, 29.193238) scale(-1, -1) translate(-18.985108, -29.193238) "></path>
                    <path d="M26.3952359,7.52289724 C24.8524176,7.52289724 23.5972339,8.7780188 23.5972339,10.3208993 C23.5972339,11.8637798 24.8524176,13.1189014 26.3952359,13.1189014 C27.9380543,13.1189014 29.193238,11.8637177 29.193238,10.3208993 C29.193238,8.77808097 27.9380543,7.52289724 26.3952359,7.52289724 Z" id="Path-Copy" fill="url(#radialGradient-5)" style="mix-blend-mode: darken;" transform="translate(26.395236, 10.320899) scale(-1, -1) translate(-26.395236, -10.320899) "></path>
                    <path d="M43.9548926,23.1486919 C42.2884112,23.1486919 40.9326195,24.5044165 40.9326195,26.170965 C40.9326195,27.8375135 42.2884112,29.193238 43.9548926,29.193238 C45.621374,29.193238 46.9771656,27.8374463 46.9771656,26.170965 C46.9771656,24.5044836 45.621374,23.1486919 43.9548926,23.1486919 Z" id="Path-Copy-2" fill="url(#radialGradient-6)" style="mix-blend-mode: darken;" transform="translate(43.954893, 26.170965) scale(-1, -1) translate(-43.954893, -26.170965) "></path>
                    <path d="M29.193238,39.8476929 C25.3437901,39.8476929 22.2120122,42.6585371 22.2120122,46.1138174 C22.2120122,49.5690978 25.3437901,52.379942 29.193238,52.379942 C33.042686,52.379942 36.1744639,49.5689585 36.1744639,46.1138174 C36.1744639,42.6586764 33.042686,39.8476929 29.193238,39.8476929 Z" id="Path-Copy-3" fill="url(#radialGradient-7)" style="mix-blend-mode: darken;" transform="translate(29.193238, 46.113817) scale(-1, -1) rotate(16.000000) translate(-29.193238, -46.113817) "></path>
                    <path d="M47.8066945,38.8268024 C46.1930494,38.8268024 44.8802435,40.5172308 44.8802435,42.5952199 C44.8802435,44.6732091 46.1930494,46.3636374 47.8066945,46.3636374 C49.4203396,46.3636374 50.7331456,44.6731253 50.7331456,42.5952199 C50.7331456,40.5173145 49.4203396,38.8268024 47.8066945,38.8268024 Z" id="Path-Copy-4" fill="url(#radialGradient-8)" style="mix-blend-mode: darken;" transform="translate(47.806695, 42.595220) scale(-1, -1) rotate(-16.000000) translate(-47.806695, -42.595220) "></path>
                    <path d="M5.07894463,21.8380921 C3.92009645,21.8380921 2.97729759,23.0932136 2.97729759,24.6360942 C2.97729759,26.1789747 3.92009645,27.4340962 5.07894463,27.4340962 C6.23779281,27.4340962 7.18059167,26.1789125 7.18059167,24.6360942 C7.18059167,23.0932758 6.23779281,21.8380921 5.07894463,21.8380921 Z" id="Path-Copy-5" fill="url(#radialGradient-9)" style="mix-blend-mode: darken;" transform="translate(5.078945, 24.636094) scale(-1, -1) rotate(20.000000) translate(-5.078945, -24.636094) "></path>
                </g>
            </g>
            <path d="M123.922939,32.6398266 L111.900053,32.6398266 C111.836691,32.0378873 111.805011,31.5943597 111.805011,31.3092305 C111.519881,27.6659135 110.712028,25.3769942 109.381425,24.4424042 C108.050822,23.5078142 104.914448,23.0405262 99.9722095,23.0405262 C94.1429022,23.0405262 90.3333169,23.5790954 88.5433394,24.65625 C86.7533619,25.7334046 85.8583866,27.9985634 85.8583866,31.4517944 C85.8583866,35.5386457 86.587039,37.9938878 88.0443659,38.8175943 C89.5016927,39.6413008 94.3171352,40.2749116 102.490838,40.7184459 C112.153548,41.2570232 118.402535,42.6351268 121.237987,44.8527981 C124.073438,47.0704693 125.491142,51.6799883 125.491142,58.6814933 C125.491142,67.2987302 123.827914,72.8665856 120.501407,75.3852266 C117.1749,77.9038675 109.840854,79.1631691 98.4990496,79.1631691 C88.2977617,79.1631691 81.5260457,77.9276279 78.1836983,75.4565085 C74.8413509,72.9853891 73.1702023,67.9798633 73.1702023,60.439781 L73.122681,58.0637165 L85.0980459,58.0637165 L85.1455672,59.4418339 C85.1455672,63.9722195 85.9375808,66.744267 87.5216317,67.7580596 C89.1056826,68.7718522 93.4300767,69.2787409 100.494944,69.2787409 C106.007441,69.2787409 109.523981,68.6926508 111.04467,67.5204532 C112.565359,66.3482555 113.325692,63.6395691 113.325692,59.3943127 C113.325692,56.2578919 112.747522,54.1748962 111.591165,53.1452631 C110.434808,52.11563 107.939965,51.4899393 104.106562,51.2681721 L97.3110173,50.8404805 C87.0463675,50.2385412 80.4884951,48.8129168 77.6372035,46.5635645 C74.7859118,44.3142122 73.3602874,39.4829294 73.3602874,32.0695712 C73.3602874,24.4978078 75.0789569,19.4526814 78.5163473,16.9340405 C81.9537378,14.4153995 88.8204955,13.1560979 99.1168263,13.1560979 C108.87458,13.1560979 115.448293,14.3124377 118.838161,16.6251521 C122.22803,18.9378664 123.922939,23.4523437 123.922939,30.1687196 L123.922939,32.6398266 Z M144.5947,13.7263534 L144.5947,78.5929136 L133.712325,78.5929136 L133.712325,13.7263534 L144.5947,13.7263534 Z M184.560105,64.051399 L195.490002,64.051399 L195.490002,65.8096867 C195.490002,74.6803718 188.837088,79.1156478 175.53106,79.1156478 C166.50197,79.1156478 160.593549,77.5791415 157.805619,74.5060827 C155.017689,71.433024 153.623745,64.9226724 153.623745,54.9748327 C153.623745,46.1358287 155.08105,40.1957269 157.995704,37.1543491 C160.910358,34.1129714 166.597015,32.5923054 175.055847,32.5923054 C183.166188,32.5923054 188.599401,34.0733707 191.355649,37.0355459 C194.111898,39.9977211 195.490002,45.8190209 195.490002,54.4996198 L195.490002,57.8261101 L164.743727,57.8261101 C164.680365,58.8399027 164.648685,59.5051941 164.648685,59.8220043 C164.648685,64.2890278 165.337736,67.2669988 166.715861,68.7560067 C168.093985,70.2450145 170.842272,70.9895073 174.960804,70.9895073 C178.952613,70.9895073 181.550417,70.5538998 182.754296,69.6826718 C183.958175,68.8114438 184.560105,66.9343717 184.560105,64.051399 Z M184.655148,51.1731296 L184.607626,49.3673206 C184.607626,45.7556845 183.981935,43.4113243 182.730535,42.3341697 C181.479135,41.2570151 178.762529,40.7184459 174.580634,40.7184459 C170.525464,40.7184459 167.888059,41.367897 166.668339,42.6668187 C165.44862,43.9657405 164.83877,46.8011491 164.83877,51.1731296 L184.655148,51.1731296 Z M233.839682,64.051399 L244.769579,64.051399 L244.769579,65.8096867 C244.769579,74.6803718 238.116665,79.1156478 224.810637,79.1156478 C215.781547,79.1156478 209.873126,77.5791415 207.085196,74.5060827 C204.297267,71.433024 202.903323,64.9226724 202.903323,54.9748327 C202.903323,46.1358287 204.360628,40.1957269 207.275281,37.1543491 C210.189935,34.1129714 215.876592,32.5923054 224.335424,32.5923054 C232.445765,32.5923054 237.878978,34.0733707 240.635227,37.0355459 C243.391475,39.9977211 244.769579,45.8190209 244.769579,54.4996198 L244.769579,57.8261101 L214.023304,57.8261101 C213.959942,58.8399027 213.928262,59.5051941 213.928262,59.8220043 C213.928262,64.2890278 214.617314,67.2669988 215.995438,68.7560067 C217.373562,70.2450145 220.121849,70.9895073 224.240382,70.9895073 C228.23219,70.9895073 230.829994,70.5538998 232.033873,69.6826718 C233.237752,68.8114438 233.839682,66.9343717 233.839682,64.051399 Z M233.934725,51.1731296 L233.887203,49.3673206 C233.887203,45.7556845 233.261513,43.4113243 232.010113,42.3341697 C230.758712,41.2570151 228.042106,40.7184459 223.860211,40.7184459 C219.805041,40.7184459 217.167636,41.367897 215.947917,42.6668187 C214.728197,43.9657405 214.118347,46.8011491 214.118347,51.1731296 L233.934725,51.1731296 Z M253.846145,33.1625608 L264.918606,33.1625608 L264.490914,39.9105839 L264.72852,39.9581052 C267.358045,35.0475474 272.252689,32.5923054 279.412599,32.5923054 C286.033932,32.5923054 290.58801,34.2317734 293.07497,37.5107588 C295.56193,40.7897442 296.805391,46.7694467 296.805391,55.4500456 C296.805391,64.5108168 295.56985,70.7202032 293.09873,74.0783911 C290.627611,77.436579 286.049772,79.1156478 279.365078,79.1156478 C272.236848,79.1156478 267.579809,76.7396071 265.393818,71.9874544 L265.203733,71.9874544 L265.203733,98.0766423 L253.846145,98.0766423 L253.846145,33.1625608 Z M275.278247,41.1936588 C271.128033,41.1936588 268.419347,42.1282348 267.152106,43.9974148 C265.884865,45.8665949 265.251255,49.8266628 265.251255,55.8777372 C265.251255,61.7704066 265.932386,65.6829536 267.29467,67.6154957 C268.656954,69.5480378 271.429001,70.5142944 275.610896,70.5142944 C279.856152,70.5142944 282.612359,69.5955587 283.8796,67.7580596 C285.146841,65.9205606 285.780452,61.976333 285.780452,55.9252585 C285.780452,49.715779 285.138921,45.7081903 283.855839,43.9023723 C282.572758,42.0965542 279.713589,41.1936588 275.278247,41.1936588 Z M314.008098,13.7263534 L314.008098,71.7973692 L347.368043,71.7973692 L347.368043,78.5929136 L306.689819,78.5929136 L306.689819,13.7263534 L314.008098,13.7263534 Z M360.198791,13.7263534 L360.198791,21.1871959 L353.545811,21.1871959 L353.545811,13.7263534 L360.198791,13.7263534 Z M360.198791,33.1625608 L360.198791,78.5929136 L353.545811,78.5929136 L353.545811,33.1625608 L360.198791,33.1625608 Z M409.858539,33.1625608 L409.858539,81.5392336 C409.858539,88.1288853 408.432914,92.659203 405.581623,95.1303224 C402.730331,97.6014418 397.503041,98.836983 389.899597,98.836983 C383.119859,98.836983 378.4945,97.7915251 376.02338,95.7005779 C373.552261,93.6096307 372.31672,89.6970836 372.31672,83.9628193 L378.732094,83.9628193 C378.732094,87.8595846 379.452826,90.394028 380.894313,91.5662257 C382.335799,92.7384233 385.495933,93.3245134 390.37481,93.3245134 C395.443773,93.3245134 398.849431,92.5641804 400.591887,91.0434915 C402.334343,89.5228026 403.205558,86.5448316 403.205558,82.1094891 L403.205558,72.9854015 L403.062994,72.9378802 C401.352219,77.1514556 396.410055,79.2582117 388.236352,79.2582117 C381.519976,79.2582117 376.894617,77.6029033 374.360135,74.2922369 C371.825654,70.9815705 370.558432,64.938507 370.558432,56.162865 C370.558432,47.0704128 371.849414,40.8531062 374.431417,37.5107588 C377.01342,34.1684114 381.805102,32.4972628 388.806607,32.4972628 C396.251647,32.4972628 401.11461,34.7782619 403.395643,39.3403285 L403.538207,39.2928072 L403.205558,33.1625608 L409.858539,33.1625608 Z M390.042161,38.0097324 C384.814793,38.0097324 381.424975,39.1106312 379.872605,41.312462 C378.320235,43.5142927 377.544062,48.3376554 377.544062,55.7826946 C377.544062,63.2910959 378.320235,68.1619794 379.872605,70.3954912 C381.424975,72.629003 384.814793,73.7457421 390.042161,73.7457421 C395.332891,73.7457421 398.817751,72.5181211 400.496845,70.0628422 C402.175939,67.6075633 403.015473,62.4990757 403.015473,54.7372263 C403.015473,47.8941264 402.175939,43.3954893 400.496845,41.24118 C398.817751,39.0868708 395.332891,38.0097324 390.042161,38.0097324 Z M428.154235,13.7263534 L428.154235,38.770073 L428.296799,38.8651156 C429.975893,34.6198591 434.664613,32.4972628 442.363101,32.4972628 C453.768267,32.4972628 459.470765,37.5661496 459.470765,47.7040754 L459.470765,78.5929136 L452.817784,78.5929136 L452.817784,48.2743309 C452.817784,41.431231 449.317084,38.0097324 442.315579,38.0097324 C436.676358,38.0097324 432.906374,39.0155896 431.005512,41.0273342 C429.104651,43.0390789 428.154235,47.0387474 428.154235,53.0264599 L428.154235,78.5929136 L421.501255,78.5929136 L421.501255,13.7263534 L428.154235,13.7263534 Z M495.634466,33.1625608 L495.634466,38.6750304 L478.146632,38.6750304 L478.146632,66.4749848 C478.146632,71.3221806 480.300909,73.7457421 484.609527,73.7457421 C488.886465,73.7457421 491.024901,71.5756249 491.024901,67.2353254 L491.072422,65.0018248 L491.167465,62.4831965 L497.345233,62.4831965 L497.392754,65.857208 C497.392754,74.7912551 493.147561,79.2582117 484.657048,79.2582117 C475.881406,79.2582117 471.493651,75.5357479 471.493651,68.0907086 L471.493651,38.6750304 L465.220841,38.6750304 L465.220841,33.1625608 L471.493651,33.1625608 L471.493651,22.2326642 L478.146632,22.2326642 L478.146632,33.1625608 L495.634466,33.1625608 Z" id="SleepLight" fill="#FDF9C5"></path>
        </g>
    </g>
</svg>