<?xml version="1.0" encoding="UTF-8"?>
<svg width="503px" height="99px" viewBox="0 0 503 99" version="1.1" xmlns="http://www.w3.org/2000/svg" xmlns:xlink="http://www.w3.org/1999/xlink">
    <!-- Generator: Sketch 43.2 (39069) - http://www.bohemiancoding.com/sketch -->
    <title>title</title>
    <desc>Created with Sketch.</desc>
    <defs>
        <linearGradient x1="1.79567921%" y1="33.2901098%" x2="100%" y2="52.4143252%" id="linearGradient-1">
            <stop stop-color="#FFFFFF" offset="0%"></stop>
            <stop stop-color="#A3A3A3" offset="87.5673394%"></stop>
            <stop stop-color="#969696" offset="100%"></stop>
        </linearGradient>
        <linearGradient x1="21.1529341%" y1="37.8795208%" x2="83.9208608%" y2="68.5478643%" id="linearGradient-2">
            <stop stop-color="#BABABA" offset="0%"></stop>
            <stop stop-color="#646464" offset="100%"></stop>
        </linearGradient>
        <radialGradient cx="28.2530367%" cy="31.2000868%" fx="28.2530367%" fy="31.2000868%" r="79.054638%" id="radialGradient-3">
            <stop stop-color="#FDF9C5" offset="0%"></stop>
            <stop stop-color="#FDF9C5" offset="65.8713144%"></stop>
            <stop stop-color="#5D5A31" offset="100%"></stop>
        </radialGradient>
        <radialGradient cx="28.2530367%" cy="31.2000868%" fx="28.2530367%" fy="31.2000868%" r="79.054638%" id="radialGradient-4">
            <stop stop-color="#E9E5B0" offset="0%"></stop>
            <stop stop-color="#E9E5B0" offset="60.0167411%"></stop>
            <stop stop-color="#5D5A31" offset="100%"></stop>
        </radialGradient>
        <radialGradient cx="28.2530367%" cy="31.2000868%" fx="28.2530367%" fy="31.2000868%" r="79.054638%" gradientTransform="translate(0.282530,0.312001),scale(0.897568,1.000000),rotate(32.149694),translate(-0.282530,-0.312001)" id="radialGradient-5">
            <stop stop-color="#E9E5B0" offset="0%"></stop>
            <stop stop-color="#E9E5B0" offset="60.0167411%"></stop>
            <stop stop-color="#5D5A31" offset="100%"></stop>
        </radialGradient>
        <radialGradient cx="28.2530367%" cy="31.2000868%" fx="28.2530367%" fy="31.2000868%" r="79.054638%" gradientTransform="translate(0.282530,0.312001),scale(1.000000,0.776573),rotate(42.040930),translate(-0.282530,-0.312001)" id="radialGradient-6">
            <stop stop-color="#E9E5B0" offset="0%"></stop>
            <stop stop-color="#E9E5B0" offset="60.0167411%"></stop>
            <stop stop-color="#5D5A31" offset="100%"></stop>
        </radialGradient>
        <radialGradient cx="28.2530367%" cy="31.2000868%" fx="28.2530367%" fy="31.2000868%" r="79.054638%" gradientTransform="translate(0.282530,0.312001),scale(1.000000,0.751124),rotate(42.991836),translate(-0.282530,-0.312001)" id="radialGradient-7">
            <stop stop-color="#E9E5B0" offset="0%"></stop>
            <stop stop-color="#E9E5B0" offset="60.0167411%"></stop>
            <stop stop-color="#5D5A31" offset="100%"></stop>
        </radialGradient>
    </defs>
    <g id="Page-1" stroke="none" stroke-width="1" fill="none" fill-rule="evenodd">
        <g id="title">
            <g id="Group-2" transform="translate(-0.478292, 0.163017)">
                <g id="Group" transform="translate(13.171626, 55.490936)">
                    <path d="M5.0869446,6.10054234 L27.0446184,6.10054234 L27.0446184,26.6514194 C27.0446184,26.6514194 25.8631258,29.5532931 24.1384119,30.852583 C22.413698,32.1518729 10.442521,33.0333211 8.00912821,30.852583 C5.57573539,28.6718449 5.0869446,26.6514194 5.0869446,26.6514194 L5.0869446,6.10054234 Z" id="Rectangle-2" fill="url(#linearGradient-1)"></path>
                    <path d="M32.2398871,0.0128524054 L26.8583728,7.09855716 C26.8583728,7.09855716 24.7680178,8.70860001 16.083248,8.70860001 C7.39847822,8.70860001 5.30524899,7.09855716 5.30524899,7.09855716 L0.0320261608,0.153279 C4.69927995,2.98812043 10.1732653,4.62168438 16.0216125,4.62168438 C21.9657517,4.62168438 27.523165,2.93408522 32.2398871,0.0128524054 Z M25.2000988,29.7771546 C25.2000988,29.7771546 23.2413555,35.154717 21.4564991,36.2382771 C19.326743,37.5259029 12.9690904,37.3821947 10.7085598,36.2382771 C8.81304809,35.2797431 6.96352304,29.7771546 6.96352304,29.7771546 C9.28441112,30.3016897 12.5149724,31.0820254 16.083248,31.0820254 C19.6472124,31.0820254 22.8705882,30.3016897 25.2000988,29.7771546 Z M27.0726171,8.98544635 C28.2596472,9.63788177 28.9480097,10.4153433 28.9480097,11.2416657 C28.9480097,13.6459046 23.1881834,15.5945883 16.0818109,15.5945883 C8.96825299,15.5945883 3.21417504,13.6444675 3.21417504,11.2416657 C3.21417504,10.4153433 3.8953521,9.63788177 5.08381925,8.98544635 C5.82822794,10.5504291 10.4714412,11.7503929 16.0818109,11.7503929 C21.682121,11.7503929 26.3253343,10.548992 27.0726171,8.98544635 Z M27.0726171,15.5945883 C28.2596472,16.2470238 28.9480097,17.0244853 28.9480097,17.8508077 C28.9480097,20.2536095 23.1881834,22.2022932 16.0818109,22.2022932 C8.96825299,22.2022932 3.21417504,20.2536095 3.21417504,17.8508077 C3.21417504,17.0259224 3.8953521,16.2470238 5.08381925,15.5945883 C5.82822794,17.1610082 10.4714412,18.3595349 16.0818109,18.3595349 C21.682121,18.3595349 26.3253343,17.1610082 27.0726171,15.5945883 Z M27.0726171,22.2022932 C28.2582101,22.8547287 28.9480097,23.6336273 28.9480097,24.4570755 C28.9480097,25.6498539 27.5152385,26.7434736 25.2000988,27.5309948 C22.8705882,28.3257014 19.6472124,28.8128723 16.0818109,28.8128723 C12.5135353,28.8128723 9.28297404,28.3242643 6.96208595,27.5309948 C4.6469462,26.7434736 3.21561212,25.6498539 3.21561212,24.4570755 C3.21561212,23.6321902 3.89966335,22.8547287 5.08238217,22.2022932 C5.8311021,23.7687131 10.4700041,24.9672398 16.0818109,24.9672398 C21.6864323,24.9672398 26.3238972,23.7687131 27.0726171,22.2022932 Z" id="Combined-Shape" fill="url(#linearGradient-2)"></path>
                </g>
                <g id="moon" transform="translate(0.138649, 0.028211)">
                    <path d="M29.193238,0 C13.0960866,0 0,13.0954378 0,29.193238 C0,45.2910382 13.0960866,58.3864761 29.193238,58.3864761 C45.2903895,58.3864761 58.3864761,45.2903895 58.3864761,29.193238 C58.3864761,13.0960866 45.2903895,0 29.193238,0 Z" id="Path" fill="url(#radialGradient-3)"></path>
                    <path d="M18.9851077,24.5811119 C16.4419814,24.5811119 14.3729816,26.6500092 14.3729816,29.193238 C14.3729816,31.7364669 16.4419814,33.8053642 18.9851077,33.8053642 C21.5282341,33.8053642 23.5972339,31.7363644 23.5972339,29.193238 C23.5972339,26.6501117 21.5282341,24.5811119 18.9851077,24.5811119 Z" id="Path" fill="url(#radialGradient-4)" style="mix-blend-mode: darken;" transform="translate(18.985108, 29.193238) scale(-1, -1) translate(-18.985108, -29.193238) "></path>
                    <path d="M26.3952359,7.52289724 C24.8524176,7.52289724 23.5972339,8.7780188 23.5972339,10.3208993 C23.5972339,11.8637798 24.8524176,13.1189014 26.3952359,13.1189014 C27.9380543,13.1189014 29.193238,11.8637177 29.193238,10.3208993 C29.193238,8.77808097 27.9380543,7.52289724 26.3952359,7.52289724 Z" id="Path-Copy" fill="url(#radialGradient-4)" style="mix-blend-mode: darken;" transform="translate(26.395236, 10.320899) scale(-1, -1) translate(-26.395236, -10.320899) "></path>
                    <path d="M43.9548926,23.1486919 C42.2884112,23.1486919 40.9326195,24.5044165 40.9326195,26.170965 C40.9326195,27.8375135 42.2884112,29.193238 43.9548926,29.193238 C45.621374,29.193238 46.9771656,27.8374463 46.9771656,26.170965 C46.9771656,24.5044836 45.621374,23.1486919 43.9548926,23.1486919 Z" id="Path-Copy-2" fill="url(#radialGradient-4)" style="mix-blend-mode: darken;" transform="translate(43.954893, 26.170965) scale(-1, -1) translate(-43.954893, -26.170965) "></path>
                    <path d="M29.193238,39.8476929 C25.3437901,39.8476929 22.2120122,42.6585371 22.2120122,46.1138174 C22.2120122,49.5690978 25.3437901,52.379942 29.193238,52.379942 C33.042686,52.379942 36.1744639,49.5689585 36.1744639,46.1138174 C36.1744639,42.6586764 33.042686,39.8476929 29.193238,39.8476929 Z" id="Path-Copy-3" fill="url(#radialGradient-5)" style="mix-blend-mode: darken;" transform="translate(29.193238, 46.113817) scale(-1, -1) rotate(16.000000) translate(-29.193238, -46.113817) "></path>
                    <path d="M47.8066945,38.8268024 C46.1930494,38.8268024 44.8802435,40.5172308 44.8802435,42.5952199 C44.8802435,44.6732091 46.1930494,46.3636374 47.8066945,46.3636374 C49.4203396,46.3636374 50.7331456,44.6731253 50.7331456,42.5952199 C50.7331456,40.5173145 49.4203396,38.8268024 47.8066945,38.8268024 Z" id="Path-Copy-4" fill="url(#radialGradient-6)" style="mix-blend-mode: darken;" transform="translate(47.806695, 42.595220) scale(-1, -1) rotate(-16.000000) translate(-47.806695, -42.595220) "></path>
                    <path d="M5.07894463,21.8380921 C3.92009645,21.8380921 2.97729759,23.0932136 2.97729759,24.6360942 C2.97729759,26.1789747 3.92009645,27.4340962 5.07894463,27.4340962 C6.23779281,27.4340962 7.18059167,26.1789125 7.18059167,24.6360942 C7.18059167,23.0932758 6.23779281,21.8380921 5.07894463,21.8380921 Z" id="Path-Copy-5" fill="url(#radialGradient-7)" style="mix-blend-mode: darken;" transform="translate(5.078945, 24.636094) scale(-1, -1) rotate(20.000000) translate(-5.078945, -24.636094) "></path>
                </g>
            </g>
            <path d="M128.922939,32.6398266 L116.900053,32.6398266 C116.836691,32.0378873 116.805011,31.5943597 116.805011,31.3092305 C116.519881,27.6659135 115.712028,25.3769942 114.381425,24.4424042 C113.050822,23.5078142 109.914448,23.0405262 104.97221,23.0405262 C99.1429022,23.0405262 95.3333169,23.5790954 93.5433394,24.65625 C91.7533619,25.7334046 90.8583866,27.9985634 90.8583866,31.4517944 C90.8583866,35.5386457 91.587039,37.9938878 93.0443659,38.8175943 C94.5016927,39.6413008 99.3171352,40.2749116 107.490838,40.7184459 C117.153548,41.2570232 123.402535,42.6351268 126.237987,44.8527981 C129.073438,47.0704693 130.491142,51.6799883 130.491142,58.6814933 C130.491142,67.2987302 128.827914,72.8665856 125.501407,75.3852266 C122.1749,77.9038675 114.840854,79.1631691 103.49905,79.1631691 C93.2977617,79.1631691 86.5260457,77.9276279 83.1836983,75.4565085 C79.8413509,72.9853891 78.1702023,67.9798633 78.1702023,60.439781 L78.122681,58.0637165 L90.0980459,58.0637165 L90.1455672,59.4418339 C90.1455672,63.9722195 90.9375808,66.744267 92.5216317,67.7580596 C94.1056826,68.7718522 98.4300767,69.2787409 105.494944,69.2787409 C111.007441,69.2787409 114.523981,68.6926508 116.04467,67.5204532 C117.565359,66.3482555 118.325692,63.6395691 118.325692,59.3943127 C118.325692,56.2578919 117.747522,54.1748962 116.591165,53.1452631 C115.434808,52.11563 112.939965,51.4899393 109.106562,51.2681721 L102.311017,50.8404805 C92.0463675,50.2385412 85.4884951,48.8129168 82.6372035,46.5635645 C79.7859118,44.3142122 78.3602874,39.4829294 78.3602874,32.0695712 C78.3602874,24.4978078 80.0789569,19.4526814 83.5163473,16.9340405 C86.9537378,14.4153995 93.8204955,13.1560979 104.116826,13.1560979 C113.87458,13.1560979 120.448293,14.3124377 123.838161,16.6251521 C127.22803,18.9378664 128.922939,23.4523437 128.922939,30.1687196 L128.922939,32.6398266 Z M149.5947,13.7263534 L149.5947,78.5929136 L138.712325,78.5929136 L138.712325,13.7263534 L149.5947,13.7263534 Z M189.560105,64.051399 L200.490002,64.051399 L200.490002,65.8096867 C200.490002,74.6803718 193.837088,79.1156478 180.53106,79.1156478 C171.50197,79.1156478 165.593549,77.5791415 162.805619,74.5060827 C160.017689,71.433024 158.623745,64.9226724 158.623745,54.9748327 C158.623745,46.1358287 160.08105,40.1957269 162.995704,37.1543491 C165.910358,34.1129714 171.597015,32.5923054 180.055847,32.5923054 C188.166188,32.5923054 193.599401,34.0733707 196.355649,37.0355459 C199.111898,39.9977211 200.490002,45.8190209 200.490002,54.4996198 L200.490002,57.8261101 L169.743727,57.8261101 C169.680365,58.8399027 169.648685,59.5051941 169.648685,59.8220043 C169.648685,64.2890278 170.337736,67.2669988 171.715861,68.7560067 C173.093985,70.2450145 175.842272,70.9895073 179.960804,70.9895073 C183.952613,70.9895073 186.550417,70.5538998 187.754296,69.6826718 C188.958175,68.8114438 189.560105,66.9343717 189.560105,64.051399 Z M189.655148,51.1731296 L189.607626,49.3673206 C189.607626,45.7556845 188.981935,43.4113243 187.730535,42.3341697 C186.479135,41.2570151 183.762529,40.7184459 179.580634,40.7184459 C175.525464,40.7184459 172.888059,41.367897 171.668339,42.6668187 C170.44862,43.9657405 169.83877,46.8011491 169.83877,51.1731296 L189.655148,51.1731296 Z M238.839682,64.051399 L249.769579,64.051399 L249.769579,65.8096867 C249.769579,74.6803718 243.116665,79.1156478 229.810637,79.1156478 C220.781547,79.1156478 214.873126,77.5791415 212.085196,74.5060827 C209.297267,71.433024 207.903323,64.9226724 207.903323,54.9748327 C207.903323,46.1358287 209.360628,40.1957269 212.275281,37.1543491 C215.189935,34.1129714 220.876592,32.5923054 229.335424,32.5923054 C237.445765,32.5923054 242.878978,34.0733707 245.635227,37.0355459 C248.391475,39.9977211 249.769579,45.8190209 249.769579,54.4996198 L249.769579,57.8261101 L219.023304,57.8261101 C218.959942,58.8399027 218.928262,59.5051941 218.928262,59.8220043 C218.928262,64.2890278 219.617314,67.2669988 220.995438,68.7560067 C222.373562,70.2450145 225.121849,70.9895073 229.240382,70.9895073 C233.23219,70.9895073 235.829994,70.5538998 237.033873,69.6826718 C238.237752,68.8114438 238.839682,66.9343717 238.839682,64.051399 Z M238.934725,51.1731296 L238.887203,49.3673206 C238.887203,45.7556845 238.261513,43.4113243 237.010113,42.3341697 C235.758712,41.2570151 233.042106,40.7184459 228.860211,40.7184459 C224.805041,40.7184459 222.167636,41.367897 220.947917,42.6668187 C219.728197,43.9657405 219.118347,46.8011491 219.118347,51.1731296 L238.934725,51.1731296 Z M258.846145,33.1625608 L269.918606,33.1625608 L269.490914,39.9105839 L269.72852,39.9581052 C272.358045,35.0475474 277.252689,32.5923054 284.412599,32.5923054 C291.033932,32.5923054 295.58801,34.2317734 298.07497,37.5107588 C300.56193,40.7897442 301.805391,46.7694467 301.805391,55.4500456 C301.805391,64.5108168 300.56985,70.7202032 298.09873,74.0783911 C295.627611,77.436579 291.049772,79.1156478 284.365078,79.1156478 C277.236848,79.1156478 272.579809,76.7396071 270.393818,71.9874544 L270.203733,71.9874544 L270.203733,98.0766423 L258.846145,98.0766423 L258.846145,33.1625608 Z M280.278247,41.1936588 C276.128033,41.1936588 273.419347,42.1282348 272.152106,43.9974148 C270.884865,45.8665949 270.251255,49.8266628 270.251255,55.8777372 C270.251255,61.7704066 270.932386,65.6829536 272.29467,67.6154957 C273.656954,69.5480378 276.429001,70.5142944 280.610896,70.5142944 C284.856152,70.5142944 287.612359,69.5955587 288.8796,67.7580596 C290.146841,65.9205606 290.780452,61.976333 290.780452,55.9252585 C290.780452,49.715779 290.138921,45.7081903 288.855839,43.9023723 C287.572758,42.0965542 284.713589,41.1936588 280.278247,41.1936588 Z M319.008098,13.7263534 L319.008098,71.7973692 L352.368043,71.7973692 L352.368043,78.5929136 L311.689819,78.5929136 L311.689819,13.7263534 L319.008098,13.7263534 Z M365.198791,13.7263534 L365.198791,21.1871959 L358.545811,21.1871959 L358.545811,13.7263534 L365.198791,13.7263534 Z M365.198791,33.1625608 L365.198791,78.5929136 L358.545811,78.5929136 L358.545811,33.1625608 L365.198791,33.1625608 Z M414.858539,33.1625608 L414.858539,81.5392336 C414.858539,88.1288853 413.432914,92.659203 410.581623,95.1303224 C407.730331,97.6014418 402.503041,98.836983 394.899597,98.836983 C388.119859,98.836983 383.4945,97.7915251 381.02338,95.7005779 C378.552261,93.6096307 377.31672,89.6970836 377.31672,83.9628193 L383.732094,83.9628193 C383.732094,87.8595846 384.452826,90.394028 385.894313,91.5662257 C387.335799,92.7384233 390.495933,93.3245134 395.37481,93.3245134 C400.443773,93.3245134 403.849431,92.5641804 405.591887,91.0434915 C407.334343,89.5228026 408.205558,86.5448316 408.205558,82.1094891 L408.205558,72.9854015 L408.062994,72.9378802 C406.352219,77.1514556 401.410055,79.2582117 393.236352,79.2582117 C386.519976,79.2582117 381.894617,77.6029033 379.360135,74.2922369 C376.825654,70.9815705 375.558432,64.938507 375.558432,56.162865 C375.558432,47.0704128 376.849414,40.8531062 379.431417,37.5107588 C382.01342,34.1684114 386.805102,32.4972628 393.806607,32.4972628 C401.251647,32.4972628 406.11461,34.7782619 408.395643,39.3403285 L408.538207,39.2928072 L408.205558,33.1625608 L414.858539,33.1625608 Z M395.042161,38.0097324 C389.814793,38.0097324 386.424975,39.1106312 384.872605,41.312462 C383.320235,43.5142927 382.544062,48.3376554 382.544062,55.7826946 C382.544062,63.2910959 383.320235,68.1619794 384.872605,70.3954912 C386.424975,72.629003 389.814793,73.7457421 395.042161,73.7457421 C400.332891,73.7457421 403.817751,72.5181211 405.496845,70.0628422 C407.175939,67.6075633 408.015473,62.4990757 408.015473,54.7372263 C408.015473,47.8941264 407.175939,43.3954893 405.496845,41.24118 C403.817751,39.0868708 400.332891,38.0097324 395.042161,38.0097324 Z M433.154235,13.7263534 L433.154235,38.770073 L433.296799,38.8651156 C434.975893,34.6198591 439.664613,32.4972628 447.363101,32.4972628 C458.768267,32.4972628 464.470765,37.5661496 464.470765,47.7040754 L464.470765,78.5929136 L457.817784,78.5929136 L457.817784,48.2743309 C457.817784,41.431231 454.317084,38.0097324 447.315579,38.0097324 C441.676358,38.0097324 437.906374,39.0155896 436.005512,41.0273342 C434.104651,43.0390789 433.154235,47.0387474 433.154235,53.0264599 L433.154235,78.5929136 L426.501255,78.5929136 L426.501255,13.7263534 L433.154235,13.7263534 Z M500.634466,33.1625608 L500.634466,38.6750304 L483.146632,38.6750304 L483.146632,66.4749848 C483.146632,71.3221806 485.300909,73.7457421 489.609527,73.7457421 C493.886465,73.7457421 496.024901,71.5756249 496.024901,67.2353254 L496.072422,65.0018248 L496.167465,62.4831965 L502.345233,62.4831965 L502.392754,65.857208 C502.392754,74.7912551 498.147561,79.2582117 489.657048,79.2582117 C480.881406,79.2582117 476.493651,75.5357479 476.493651,68.0907086 L476.493651,38.6750304 L470.220841,38.6750304 L470.220841,33.1625608 L476.493651,33.1625608 L476.493651,22.2326642 L483.146632,22.2326642 L483.146632,33.1625608 L500.634466,33.1625608 Z" id="SleepLight" fill="#FDF9C5"></path>
        </g>
    </g>
</svg>